<svg width="1040" height="400" xmlns="http://www.w3.org/2000/svg" xmlns:xlink="http://www.w3.org/1999/xlink"><defs><path id="a" d="M0 0h1040v400H0z"/><path d="M20.099 0C13.792 0 8.823 1.868 5.329 5.552-.27 11.46-.02 19.878.012 20.592v13.727c0 .09.01.18.029.265-.024.16-.04.321-.04.487 0 1.746 1.357 3.161 3.03 3.161 1.673 0 3.03-1.415 3.03-3.16 0-1.746-1.357-3.161-3.03-3.161-.17 0-.337.018-.5.046V20.56l-.001-.067c-.004-.078-.362-7.944 4.63-13.208 2.998-3.163 7.352-4.766 12.94-4.766a1.26 1.26 0 000-2.52" id="c"/></defs><g fill="none" fill-rule="evenodd"><mask id="b" fill="#fff"><use xlink:href="#a"/></mask><use fill="#FFE8B9" xlink:href="#a"/><path d="M85.094 486.082c-2.18-85.016 33.476-140.594 106.968-166.733 110.239-39.208 154.5-89.15 180.79-162.036 26.29-72.886 106.75-157.678 262.27-98.324 155.521 59.353 291.722 222.927 315.295 380.488C973.991 597.038 927.113 783 728.82 783s-257.647-96.6-424.998-103.292C168.616 668.026 95.707 603.484 85.094 486.082z" fill-opacity=".2" fill="#FFF" fill-rule="nonzero" style="mix-blend-mode:overlay" mask="url(#b)"/><g mask="url(#b)"><path stroke="#6DB5FF" stroke-width="11" fill="#F9FAFB" d="M645.5 34.5h329v189h-329z"/><g transform="translate(676 64)"><path d="M124 124a3 3 0 010 6H90a3 3 0 110-6h34zm10-12a3 3 0 010 6H90a3 3 0 110-6h44z" fill="#6DB5FF"/><path d="M225.843 75.6c-.29 0-.5 2.249-.642 6.168-.07 1.96-.124 4.337-.162 7.059l-.067 9.372-.002 1.38 9.471.064 7.204.093c4.564.061 8.881.106 14.353.068 5.731-.055 9.653-.093 10.86-.103-.03-5.752-.047-8.611-.067-12.352 0-1.63-.003-3.327-.004-5.236l.042-7.452-8.887-.055c-2.987-.003-6.264.017-9.678.086-9.814.199-17.56.31-17.56.844 0 .7 8.307 1.01 13.461.884 4.284-.102 7.614-.082 10.923-.035l9.893.123.02 2.447c.075 4.867.11 9.266.115 12.721l-.01 4.415-.017 1.557a2.864 2.864 0 01-.025.259l-9.66-.112-5.879-.124c-3.768-.096-9.614.106-15.354.135l-4.338-.019-1.96-.029-.973-.013-.085-.011c.004-.06.007-.005.008-.153v-1.328c-.01-.948-.022-2.025-.037-3.252-.234-12.522-.416-17.401-.943-17.401" fill="#C4CDD5"/><rect fill="#6DB5FF" x="235" y="84" width="23" height="6" rx="3"/><path d="M170.133 72.995c-.58 0-.841 8.705-.87 21.637l-.015 3.656 8.498.07 6.497.088c4.143.054 8.102.09 13.027.055 5.434-.053 9.196-.09 10.296-.102l-.068-12.234v-5.89l.053-8.236-7.816-.04c-2.593.003-5.442.026-8.397.088-9.498.199-16.996.31-16.996.844 0 .699 8.04 1.009 13.028.883a248.24 248.24 0 019.786-.046c2.682.04 5.31.08 8.539.127l-.006.169-.001 1.113.02 2.865c.076 4.77.11 9.077.115 12.462l-.011 4.326-.02 1.519a2.327 2.327 0 01-.024.252l-9.17-.11-5.593-.123c-3.646-.097-9.305.106-14.86.135l-3.256-.008-1.42-.02-.283-.004-.04-.005-.065-.012c.016.314.03-1.277.033-2.401.003-1.221-.006-2.582-.038-4.218-.234-12.12-.416-16.84-.943-16.84" fill="#C4CDD5"/><rect fill="#6DB5FF" x="179" y="82" width="19" height="6" rx="3"/><path d="M192.564 67.116c.488.314 2.058-1.643 4.088-4.743 2.034-3.101 3.221-4.436 4.84-7.097 1.616-2.664 2.096-3.543 3.051-5.055 1.164-1.937 2.898-4.07 4.415-6.847 1.306-2.397 2.375-4.264 1.927-4.553-.589-.38-2.097 1.39-2.765 2.66-1.282 2.432-2.355 3.324-3.822 5.815-2.439 4.297-4.406 6.84-5.57 8.336-.648.826-1.356 2.298-2.193 3.653-.787 1.277-1.3 1.723-2.152 3.262-1.683 3.048-2.262 4.284-1.819 4.569M225.84 38.774c-.515.269.412 2.607 2.105 5.917 1.692 3.312 2.267 5.009 3.781 7.74 1.518 2.732 2.046 3.586 2.89 5.169 1.11 1.977 2.106 4.546 3.773 7.248 1.44 2.328 2.535 4.188 3.008 3.94.621-.323-.173-2.516-.948-3.73-1.48-2.323-1.726-3.701-3.167-6.216-2.533-4.26-3.772-7.236-4.498-8.994-.399-.973-1.33-2.322-2.095-3.724-.722-1.32-.855-1.99-1.774-3.495-1.819-2.98-2.608-4.1-3.075-3.855" fill="#C4CDD5"/><path d="M89.801 63.98c0 .29 3.147.502 8.632.643 5.484.14 13.306.214 22.655.229l10.31.046c1.497.013 2.882.024 4.15.036l1.814.02c.793.006.547.013.668.02l-.1 11.78-.006 12.668c.017 2.836.03 5.326.043 7.205l.02 2.327c.002.212.003.112.005.152l.005.028a.49.49 0 00.01.047l-18.035.087c-4.455.027-9.274-.002-14.585-.035l-16.549-.054-.083-7.99c-.2-13.733-.311-24.575-.844-24.575-.7 0-1.01 11.627-.884 18.839.05 2.943.07 5.564.073 7.978l-.036 7.522 10.18.1c3.269.027 6.803.038 10.982.005 7.572-.084 14.335-.116 19.671-.116 2.667.009 4.977.017 6.853.022l5.096.057.103-13.603.107-7.054c.037-2.007.03-4.436.007-7.193l-.097-10.133c-1.53.01-3.821.028-6.102.044-7.564.029-10.857-.161-19.711-.043-17.525.234-24.352.415-24.352.942" fill="#91CF83"/><path stroke="#91CF83" stroke-width="1.6" stroke-linecap="square" d="M103.999 81h18v12h-18z"/><circle stroke="#91CF83" stroke-width="1.6" stroke-linecap="square" cx="112.999" cy="87" r="2"/><path d="M118 81v-5a4.951 4.951 0 00-4.9-5h-.1a4.951 4.951 0 00-5 4.9V81" stroke="#91CF83" stroke-width="1.6"/><path d="M56.379 105.573c.263 0 .461-2.441.601-6.758.07-2.157.125-4.784.168-7.807l.087-11.024-5.558-.015c-17.631-.032-26.026-.307-40.832-.228L1 79.814l.096 20.214v9.705c4.239.026 9.128.054 14.504.085 5.041.019 10.539.01 16.339-.08 12.945-.197 23.163-.31 23.163-.842 0-.7-10.958-1.01-17.755-.885-13.017.238-19.35-.181-33.08-.067l-.818.01c-.127 0-.25.003-.366.004l-.068.005a1.274 1.274 0 00-.164.016c-.132-12.24-.084-24.894.011-26.302l10.352.097 6.169.1c4.97.096 12.681-.106 20.252-.135 3.234-.014 5.64.019 8.13.047l3.914.032 2.219.003 1.212-.004c.296-.002.203-.003.243-.004l.058-.005.01.058.004.023.003.166.008.567c.234 16.517.416 22.95.943 22.95" fill="#C4CDD5"/><rect fill="#6DB5FF" x="9.999" y="92" width="38" height="6" rx="3"/><path d="M59.321 78.186c.352.46 8.485-5.416 20.348-14.432 11.87-9.015 17.68-13.101 27.583-20.757 2.387-1.851 4.382-3.398 5.915-4.585 1.476-1.15 2.84-2.21 2.513-1.981l8.985 7.21c7.1 5.673 15.431 12.828 25.43 20.649 8.622 6.742 15.4 12.1 15.735 11.686.442-.543-6.556-6.623-11.097-10.147-8.694-6.75-12.587-10.451-21.672-17.677a1170.755 1170.755 0 01-10.89-8.694l-3.748-3.051-2.708-2.248-10.08 7.549-5.415 3.97c-3.399 2.473-8.459 6.588-13.53 10.494-4.775 3.68-6.976 5.12-12.515 9.493-10.959 8.658-15.174 12.1-14.854 12.52M115.726 19.89c-.58 0-.841 1.013-.87 2.518-.032 1.504-.308 2.221-.23 3.485.083 1.265.157 1.67.17 2.395.072.917-.233 2.027-.005 3.308.2 1.106.31 1.978.844 1.978.7 0 1.01-.936.885-1.516-.237-1.111.182-1.652.067-2.824-.275-2.003.003-3.303.173-4.07.097-.424-.105-1.083-.135-1.728-.03-.609.162-.874.044-1.587-.234-1.409-.416-1.959-.943-1.959" fill="#C4CDD5"/><path d="M241 27a3 3 0 010 6h-54a3 3 0 010-6h54zm10-12a3 3 0 010 6h-64a3 3 0 010-6h64z" fill="#6DB5FF"/><path d="M99.11.995c-.267 0-.468 1.547-.608 4.276-.07 1.365-.124 3.024-.166 4.933l-.052 3.045-.033 4.217 3.236.01c10.787.033 15.922.308 24.98.229l8.773-.102c-.032-4.827-.048-7.205-.067-10.336 0-1.992.002-4.093.006-7.181l-8.816-.08a316.997 316.997 0 00-9.523.08c-7.92.2-14.172.31-14.172.845 0 .7 6.704 1.01 10.862.884 3.983-.12 6.942-.073 9.956-.012 1.507.026 3.027.053 4.697.084l2.632.015 1.43-.005.75-.006.222-.003.073-.005c.048-.005.1-.01.106-.014.138 5.719.119 14.239.047 13.937-3.314-.05-5.696-.084-7.525-.111l-4.674-.123c-3.04-.097-7.757.106-12.39.135-1.89.013-3.316-.016-4.778-.043l-2.282-.033-1.278-.006h-.37l-.06.007c-.002-.011-.007-.028-.013-.047-.002-.016-.005-.014-.008-.051l-.011-.498C99.82 4.932 99.638.995 99.11.995" fill="#C4CDD5"/><rect fill="#6DB5FF" x="107.999" y="6" width="18" height="6" rx="3"/><path d="M26.083 1.982c0 .29 3.273.5 8.979.642 5.705.14 13.84.213 23.566.228l9.11.036 3.643.029 1.556.015.288.004.049.005.085.008-.116 13.917c-.03 4.63-.041 9.207-.015 14.536l.034 5.94.016 1.709c.005.03.01.056.016.069l-21.24.103c-4.19.026-8.687.003-13.664-.025l-15.548-.067-.017-4.59-.07-6.968c-.198-14.287-.31-25.565-.843-25.565-.7 0-1.011 12.095-.885 19.597.06 3.7.079 6.91.074 9.906l-.067 9.428 9.007.08c2.927.019 6.12.023 9.794-.005a1926.89 1926.89 0 0121.929-.116l7.663.032 5.746.07.093-12.6.094-6.421c.043-2.451.027-5.505-.007-8.916L75.24 1.068l-3.322.015c-7.868.029-11.293-.162-20.504-.044-18.23.234-25.331.416-25.331.943" fill="#91CF83"/><path d="M54 10l-8.234 8.234A6.953 6.953 0 0043.998 18a7 7 0 107 7c0-.891-.172-1.74-.476-2.524L53 20v-3h3l3-3v-4h-5z" stroke="#91CF83" stroke-width="1.6" stroke-linecap="square"/><circle stroke="#91CF83" stroke-width="1.6" stroke-linecap="square" cx="43.999" cy="25" r="2"/><path fill="#FFE8B9" d="M256.089 92.905l24.939-1.744 1.262 18.05-8.426 8.514-15.962 1.117z"/><path fill="#FFC95C" d="M273.864 117.742l-.557-7.966 8.979-.628z"/><path fill="#FFE8B9" d="M67.5 92v6.188l-4.5 19.75 26.436.937 3.94-18.438v-7.374z"/><path fill="#C0DFFF" d="M4.625 33v4.625L0 57.826h15.75l11.625-7.665L29.5 37v-3.743z"/><path fill="#6DB5FF" d="M18.75 49.078l-3 8.748 11.625-7.665z"/><g><path fill="#F9D0C7" d="M163 26.5l1.5 24.75h18.75l4.625-20.591V25z"/><path fill="#F2937C" d="M187.875 30.659l-9.752 13.716 5.127 6.875z"/></g></g><path fill="#4D5D8C" d="M664 188h5v9h-5z"/><path fill="#EF7457" d="M661 180h6v26h-6z"/><path fill="#4D5D8C" d="M661 180h6l-3-6h-3zM659 188h5v9h-5z"/></g><g mask="url(#b)"><path d="M842.748 243.812s31.276 26.853 27.855 112.008h-7.427s7.689-77.702-22.578-110.541l2.15-1.467zM897.677 225.536s-18.962 18.276-19.939 130.284h-7.135s4.985-116.797 25.119-133.02l1.955 2.736z" fill="#BA7D00"/><path d="M935.599 267.156s-23.653-11.326-38.9 14.674-22.088 73.99-22.088 73.99h6.841s6.256-51.217 19.352-72.376c13.097-21.16 33.426-12.78 33.426-12.78l1.369-3.508z" fill="#BA7D00"/><path d="M906.864 304.116s-17.788 5.083-25.412 51.704h4.496s4.887-38.411 20.916-48.185v-3.519zM872.265 355.82s-20.72-65.387-38.313-64.41v3.52s13.292-2.542 33.622 61.77l4.69-.88z" fill="#BA7D00"/><path d="M865.668 355.82s4.251-19.255-21.16-28.442v1.368s20.329 7.429 18.667 27.074h2.493z" fill="#BA7D00"/><path d="M824.765 239.903s1.954-.39 0-3.616c-1.955-3.225-3.812-3.91-4.496-3.03-.684.88 1.27 5.962 4.496 6.646m6.353 18.082c1.368 2.248 4.69 5.082 4.3 1.515 0 0-1.857-7.77-4.887-7.673-3.03.098-.782 3.91.587 6.158m22.186 3.208s3.194 1.58 2.427-3.013c-.766-4.594-4.577-7.63-6.434-7.823-1.857-.191-3.715 3.195 4.007 10.836m-69.784-22.496c4.202-1.262 12.347-1.51 16.224.913 4.691 2.932 9.676 4.398 11.044 3.225 1.368-1.173.586-4.3-8.992-7.526-7.903-2.66-15.226-2.328-17.547-2.13 1.417-6.214 4.637-10.878 8.196-14.284 4.964 1.021 9.458 4.543 12.38 7.716 3.422 3.714 11.436 10.849 12.805 8.796 1.368-2.052-.782-6.157-6.507-11.533-4.733-4.445-12.153-7.417-14.582-8.314 4.055-2.81 7.839-4.169 9.262-4.49l.576-.126c4.416 1.894 8.912 6.202 11.293 10.975 2.876 5.767 6.995 10.067 8.265 8.895 1.271-1.174.684-5.279-4.398-11.826-3.394-4.374-7.92-7.307-10.552-8.774 3.927-.362 8.811-.082 13.337 2.518 6.891 3.959 9.628 18.619 9.628 18.619s.488-2.394 3.518-6.01c3.03-3.617 11.924-7.527 18.864-5.865 3.457.828 6.574 4.276 8.917 8.53-9.612-4.34-16.043.175-17.127 1.44-1.173 1.368-.782 3.616 9.187 3.029 4.643-.273 7.9-.122 10.055.117 1.17 3.054 1.936 6.19 2.162 8.875.267 3.158-.61 6.641-1.968 9.916-1.102-1.063-3.524-3.246-8.783-7.57-8.891-7.312-16.713-5.571-17.202-3.812-.489 1.76 2.932 4.984 12.022 8.6 6.479 2.579 10.026 5.95 11.53 7.674-1.758 3.037-3.669 5.538-4.982 6.89-1.659 1.709-5.624 5.902-11.103 10.15-.099-5.8-2.303-15.304-5.512-21.488-4.007-7.721-7.037-7.428-7.819-4.203-.782 3.226 1.466 6.256 6.842 13.88 3.715 5.268 4.815 10.255 5.14 12.834-3.4 2.522-7.316 4.99-11.58 6.903-.549-2.465-1.187-6.264-2.161-10.576-1.662-7.356-5.962-10.14-7.422-8.38-1.46 1.76-.202 7.819 3.122 12.217 1.744 2.31 3.03 5.4 3.86 7.814-1.106.42-2.23.801-3.372 1.128-1.9.544-3.603 1.066-5.133 1.563.045-3.809-1.115-9.81-3.149-8.062-2.092 1.8.026 6.856.954 8.8-8.546 2.972-10.46 4.884-10.46 4.884-.358-1.39-4.511-4.913-9.564-10.292 2.955-5.719 7.406-10.51 10.64-11.894 3.42-1.467 4.983-4.79 3.322-6.94-1.661-2.15-5.473 1.27-8.698 5.653-2.416 3.28-5.543 8.78-6.962 11.337-2.854-3.165-5.881-6.876-8.609-11.089 5.465-6.418 19.585-7.955 19.773-10.299.196-2.444-3.42-1.368-11.826 1.466-6.504 2.193-8.79 4.5-10.038 5.389-1.757-3.1-3.308-6.435-4.499-9.99 3.325-2.282 10.24-2.342 16.882-1.85 7.917.586 15.443-1.661 16.03-3.518.586-1.857-1.27-2.346-12.804-1.467-9.67.738-18.514 2.781-21.118 3.422a46.71 46.71 0 01-.97-4.79 37.22 37.22 0 01-.391-7.07" fill="#FFC95C"/><path d="M833.942 232.273c.204.124-1.94 4.021-4.651 10.062-2.686 6.054-3.722 9.04-5.716 14.23-1.96 5.208-2.56 6.891-3.578 9.92-.324.956-.672 1.96-1 3.024l-1.025 3.341c-.734 2.317-1.442 4.852-2.298 7.541-1.427 4.654-2.466 8.355-2.708 8.29-.304-.08.66-4.096 1.396-6.55 1.472-4.677 1.95-7.023 3.573-11.938 2.814-8.38 4.751-13.78 5.877-16.975.649-1.759 1.796-4.432 2.93-7.053 1.076-2.463 1.463-3.573 2.84-6.406 2.773-5.585 4.167-7.606 4.36-7.486" fill="#FFF"/><path d="M797.298 230.043c.055-.26 2.616.24 6.141 1.715l1.242.518 1.094.485c.698.297 1.316.595 1.917.883.603.284 1.189.563 1.785.892.598.327 1.237.651 1.92 1.07 1.371.837 2.273 1.39 3.001 1.901.73.505 1.347.874 2.087 1.42.933.696 2.02 1.384 3.121 2.249l1.734 1.33a80.197 80.197 0 011.77 1.553c1.056.92 1.918 1.834 2.55 2.477.623.653.976 1.08.892 1.166-.223.225-2.035-1.274-3.066-2.304a50.09 50.09 0 00-2.655-2.26 98.932 98.932 0 01-2.87-2.174c-3.99-3.068-6.919-4.573-8.638-5.417-.477-.235-1.06-.58-1.724-.923-.661-.35-1.373-.755-2.111-1.088-1.379-.655-2.02-.841-3.658-1.548-1.623-.695-2.779-1.107-3.51-1.392-.735-.287-1.049-.434-1.022-.553M853.695 223.57c0 .131-.926.212-2.451.744a18.59 18.59 0 00-2.662 1.146c-.505.243-1.012.56-1.556.871-.525.345-1.09.686-1.64 1.104-2.248 1.617-3.634 3.116-4.991 4.518-1.36 1.416-2.673 2.736-4.569 4.191-.951.723-1.787 1.276-2.571 1.677-.394.2-.77.366-1.144.493-.191.058-.374.116-.569.151-.289.054-.62.067-.868.005-.173.017-.158-.157-.194-.274-.037-.113-.041-.266-.044-.418l-.018-.546-.029-.885-.033-.895-.096-.949-.129-1.292c-.057-.44-.146-.885-.223-1.344-.135-.921-.382-1.862-.616-2.848a40.576 40.576 0 00-2.2-6.178 30.335 30.335 0 00-2.51-4.49c-.731-1.087-1.243-1.703-1.158-1.786.113-.117.812.446 1.552 1.335.377.441.752.967 1.112 1.494.336.542.675 1.074.913 1.566.946 1.863 1.576 3.282 2.12 4.765.568 1.474 1.024 3.026 1.446 5.186a46.52 46.52 0 01.574 5.116l.045 1.138.019.443c.007.04-.016.123.056.101.025 0 .05-.004.074-.007l.04-.008.106-.025c.147-.031.296-.088.44-.134.29-.11.568-.24.835-.378 1.06-.573 1.936-1.229 2.67-1.838a31.3 31.3 0 001.858-1.654c.286-.266.61-.569.958-.905.352-.334.74-.686 1.129-1.077.782-.762 1.661-1.627 2.554-2.45l1.135-1.014 1.015-.84a22.259 22.259 0 012.592-1.775 22.15 22.15 0 013.088-1.449c.895-.313 1.634-.507 2.223-.607 1.178-.2 1.721-.092 1.717.021M846.278 253.094c-.25.085-.859-1.45-2.126-3.535a16.583 16.583 0 00-1.766-2.372c-.563-.63-1.116-1.201-1.864-1.877-.757-.666-1.292-1.068-1.763-1.367a7.304 7.304 0 00-.672-.41c-.22-.129-.447-.25-.713-.365-1.321-.652-3.077-.993-5.117-1.103-1.773-.087-3.176.218-3.228-.037-.033-.154.327-.332.824-.488.247-.085.532-.132.815-.17.284-.033.564-.079.81-.062.94.015 1.636.02 2.347.08.355.03.716.055 1.104.138.194.04.4.069.611.127.21.064.434.13.672.203 1.61.57 2.812 1.302 3.75 1.935a19.598 19.598 0 012.09 1.644c.54.48 1.211 1.38 1.83 2.27.575.845.897 1.173 1.436 2.245.522 1.065.8 1.84.941 2.35.138.51.131.757.019.794M838.58 270.66c-.241.094-.941-1.39-2.185-3.492-.31-.526-.609-.964-.872-1.37l-.793-1.09c-.53-.665-1.008-1.306-1.662-2.09-1.298-1.575-1.767-2.04-2.619-2.843-.133-.13-.269-.263-.414-.392-.153-.122-.31-.245-.469-.373-.322-.25-.66-.512-1.01-.786-.753-.474-1.512-1.069-2.405-1.588-.378-.234-.727-.478-1.062-.661a27.57 27.57 0 01-.897-.48c-.504-.286-.8-.5-.758-.611.058-.147.451-.095.944.053.246.074.515.171.777.278.131.054.26.11.383.166.118.065.229.135.33.2.391.252.737.458 1.064.642.162.094.325.173.476.266l.443.283c.589.378 1.219.73 1.945 1.386 2.501 2.204 3.905 3.844 4.774 4.783.229.269.49.637.772 1.045.272.416.55.882.847 1.328.526.86.837 1.189 1.37 2.248 1.018 2.112 1.235 3.017 1.022 3.099M822.883 256.498c.001.248-1.773.417-4.313 1.265-2.529.869-3.622 1.563-5.606 2.605-1.969 1.085-2.584 1.473-3.65 2.208-.692.438-1.39 1.017-2.159 1.635-.785.596-1.566 1.326-2.478 2.022-1.531 1.25-2.685 2.311-2.86 2.133-.224-.223.916-1.485 1.72-2.163 1.585-1.243 2.195-2.04 3.927-3.282 2.977-2.084 5.003-3.295 6.199-4.028.339-.188.79-.393 1.287-.613.498-.222 1.066-.41 1.609-.64 1.041-.383 1.47-.633 2.74-.952 2.53-.563 3.59-.414 3.584-.19" fill="#FFF"/><path d="M896 340h-44c-10.957 20-10.957 40 0 60 27.865-.687 25.435 0 44 0 10.398-20 10.398-40 0-60z" fill="#43A0FF"/><path d="M895.409 345.46s2.659-1.173 1.095-2.248c-1.564-1.075-9.676 3.518-12.364 11.044 0 0 4.642-5.6 11.269-8.797m-9.225-10.317c10.791-4.258 16.673 3.574 16.673 3.574 3.42-4.985 10.946-6.45 17.397-1.857 6.45 4.594 6.06 12.315 4.985 15.54-.305.912-1.102 2.098-2.165 3.4-.6-2.04-2.037-5.072-5.398-6.137-5.241-1.662-6.414.587-5.828 1.369.569.757 7.196-.596 9.206 7.062-2.549 2.727-5.638 5.563-7.544 7.305-3.42 3.127-4.398 6.646-4.398 6.646-2.158-4.548-4.835-6.934-7.877-8.447 1.345-1.08 3.87-3.345 3.87-5.139 0-2.349-3.253-2.526-6.196 4.153-4.141-1.493-8.828-2.063-13.743-4.446-9.676-4.69-9.773-18.765 1.018-23.023" fill="#FFC95C"/><path d="M903.335 340.09c.216-.149 1.51 1.564 2.874 4.406a64.073 64.073 0 011.57 3.504c.412 1.02.78 1.996 1.132 3.277.343 1.283.53 2.14.664 2.864.141.722.23 1.31.346 2.063.247 1.902.589 4.244.264 6.94-.264 2.322-.835 4.08-1.045 4.02-.153-.04-.157-.538-.085-1.163.05-.63.171-1.394.256-1.981.196-1.123.203-1.976.194-2.837-.017-.862-.076-1.737-.15-2.935a26.15 26.15 0 00-.813-5.06 27.981 27.981 0 00-.998-3.072c-.31-.814-.681-2.118-1.19-3.348-.48-1.158-.782-1.619-1.386-2.953-1.232-2.631-1.841-3.587-1.633-3.725" fill="#FFF"/><path d="M921.24 347.015c-.197.173-1.057-.65-2.602-1.518l-.549-.294-.509-.218c-.319-.146-.624-.236-.917-.329l-.435-.142-.449-.112c-.306-.069-.616-.186-.98-.247l-.924-.2a294.06 294.06 0 01-.692-.087c-.409-.056-.74-.1-1.17-.09-.27-.008-.556-.005-.854.001-.298.011-.609.068-.933.1-.323.049-.663.056-1.01.127-.348.062-.71.118-1.09.161-.162.021-.323.033-.475.06l-.435.088c-.278.054-.529.1-.742.131-.425.062-.7.062-.738-.051-.1-.299.972-.741 1.676-.876.68-.093 1.178-.19 1.683-.315.506-.116 1.037-.17 1.76-.218 2.482-.015 4.08.274 5.027.447.528.09 1.285.442 2.01.79.342.167.601.258.857.395.257.133.538.263.893.538.714.525 1.148.967 1.392 1.281.244.312.296.505.206.578M909.579 356.688c.09.24-.332.548-.88 1.164-.27.311-.42.583-.555.84a7.794 7.794 0 01-.194.387c-.064.133-.131.274-.219.426-.328.621-.427.833-.56 1.221-.192.488-.205 1.13-.433 1.83-.182.61-.288 1.109-.53 1.086-.314-.028-.38-.603-.28-.94.22-.638.078-.995.316-1.671.433-1.133.671-1.884.827-2.346.093-.252.378-.562.632-.875.241-.292.285-.48.645-.765.735-.537 1.15-.572 1.23-.357M907.545 348.644c0 .26-1.3.379-3.175.92-.233.07-.45.138-.655.2-.203.073-.39.15-.57.22l-.515.208-.469.226c-.618.28-1.172.6-1.896.972-.708.404-1.183.665-1.55.93-.372.26-.697.437-1.052.748-.463.373-.972.791-1.456 1.322l-.786.794c-.256.29-.528.585-.822.882l-.37.373c-.114.125-.215.252-.316.37-.201.235-.385.444-.546.616-.321.341-.552.53-.651.463-.263-.173.374-1.266.884-1.856.528-.532.878-.958 1.23-1.403.375-.422.769-.846 1.353-1.376 2.105-1.686 3.583-2.628 4.48-3.16a4.94 4.94 0 01.96-.443c.38-.144.792-.299 1.21-.43.39-.133.662-.25.961-.344.298-.1.612-.21 1.091-.285.944-.167 1.612-.2 2.041-.173.428.023.621.11.619.226" fill="#FFF"/><path d="M912.866 334.117c-.27.072-.543.068-.815-.026.27 0 .542.008.815.026" fill="#72C260"/><path d="M906.4 335.514c1.666-.924 3.604-1.425 5.65-1.422.273.094.546.097.816.026 2.433.16 4.985 1.03 7.388 2.74 4.357 3.104 5.59 7.633 5.603 11.24-1.755-1.338-4.187-2.995-7.558-4.98-4.174-2.457-8.31-4.903-11.899-7.604" fill="#FFAB00"/><path d="M911.164 328.942c2.835 3.323 6.06-5.766 6.06-5.766s1.466-3.91-.88-5.083c-2.345-1.173-8.014 7.526-5.18 10.849m21.893-19.897c.294 1.802 7.526 2.5 9.286 1.215 1.759-1.284-.978-2.43-.978-2.43-4.789-1.954-8.6-.586-8.308 1.215m-23.945-8.642c8.6 1.563 9.187 8.6 9.187 8.6s4.967-18.179 19.343-12.608c11.469 4.445 15.709 19.52 13.237 30.4-1.372-2.145-4.092-5.599-8.732-8.507-7.33-4.593-12.608-4.398-13.781-2.834-1.173 1.564.489 4.691 7.233 6.646 4.959 1.438 11.379 4.462 14.34 7.827-.585 1.517-1.324 2.902-2.22 4.097-7.331 9.774-14.564 8.895-17.496 13.781 0 0-1.466-3.03-11.924-9.187-7.928-4.668-15.74-9.282-19.867-15.71.206-1.417 1.004-3.284 3.447-4.913 4.692-3.127 6.451-4.914 4.496-7.735-1.711-2.47-7.993 4.267-8.743 11.295a18.154 18.154 0 01-1.91-5.417c-1.857-10.262 4.789-17.3 13.39-15.735" fill="#FFC95C"/><path d="M930.528 344.97c-.258.01-.482-2.656-1.113-6.586-.158-.982-.33-1.83-.478-2.605a4058.7 4058.7 0 00-.488-2.143c-.349-1.343-.648-2.615-1.102-4.22-.89-3.216-1.248-4.23-1.919-6.022l-.323-.875c-.119-.295-.258-.59-.392-.896l-.86-1.909-1.027-2.025c-.178-.35-.347-.714-.537-1.075l-.606-1.086c-.352-.637-.673-1.25-.988-1.791a72.743 72.743 0 01-.88-1.404c-.487-.806-.756-1.326-.66-1.398.127-.094.57.352 1.09.99.507.645 1.143 1.446 1.486 2.147.699 1.314 1.311 2.235 1.815 3.242l.823 1.549c.297.549.54 1.183.851 1.903 2 4.97 2.947 8.312 3.562 10.269.154.546.313 1.252.482 2.032l.468 2.489c.275 1.601.491 2.283.708 4.176.389 3.75.315 5.23.088 5.239" fill="#FFF"/><path d="M946.357 317.976c-.166.203-1.71-.944-4.234-2.268a22.594 22.594 0 00-3.181-1.364 37.212 37.212 0 00-2.977-.888c-1.152-.279-1.925-.42-2.577-.499a10.32 10.32 0 00-.92-.098c-.3-.024-.602-.05-.943-.047-.861-.046-1.81.057-2.832.2-1.02.17-2.104.43-3.26.76-1.99.599-3.422 1.455-3.553 1.23-.08-.135.258-.45.752-.795.242-.182.543-.328.838-.48.296-.148.592-.288.866-.368.516-.172.959-.335 1.383-.455l.609-.198.596-.162.604-.163c.208-.04.422-.084.646-.128.447-.1.944-.138 1.515-.191 1.961-.087 3.569.07 4.864.252a29.76 29.76 0 013.01.583c.81.193 1.996.704 3.135 1.232 1.07.502 1.576.652 2.757 1.382 1.16.734 1.915 1.318 2.37 1.727.454.41.608.647.532.738M924.549 320.189c.135.228-.908.95-2.043 2.464-.3.362-.494.728-.696 1.04-.189.323-.326.634-.477.925-.15.29-.249.598-.387.903-.143.303-.258.636-.394 1.008-.303.733-.41 1.25-.544 1.67-.139.42-.185.777-.271 1.227-.052.286-.117.584-.142.904l-.06 1.004c-.071.695-.025 1.455-.094 2.268-.046 1.405.017 2.525-.234 2.55-.312.037-.535-1.173-.53-1.934.089-1.451-.118-2.163.092-3.696.404-2.601.917-4.24 1.221-5.219.097-.266.255-.591.437-.943l.665-1.075c.231-.332.373-.588.54-.848.186-.247.364-.525.704-.862.658-.68 1.207-1.057 1.575-1.264.37-.205.584-.224.638-.122M936.49 337.93c-.248.088-.636-.652-1.282-1.717-.658-1.06-1.126-1.447-1.785-2.233-.33-.398-.582-.626-.782-.831-.196-.212-.386-.341-.615-.528-.278-.256-.662-.422-1.045-.65-.413-.17-.832-.41-1.314-.6-.206-.088-.397-.19-.58-.254a6.99 6.99 0 01-.487-.172c-.276-.112-.444-.222-.427-.34.032-.304.883-.306 1.362-.1.446.217.807.283 1.146.436.346.135.715.256 1.133.566 1.427 1.046 2.229 1.843 2.738 2.298.134.131.28.32.425.54l.44.704c.28.45.478.603.737 1.172.487 1.136.553 1.63.336 1.709" fill="#FFF"/><path d="M950.467 312.212a49.272 49.272 0 00-.03 1.899c.052.026.107.052.154.077l.373.19c-.14-.727-.306-1.45-.497-2.166zm-8.205-13.184c-.292 2.268-.808 5.767-1.247 8.673.117.044.232.081.35.13 0 0 2.737 1.145.978 2.429a2.55 2.55 0 01-.738.343c.579.227 1.147.447 1.69.657.063-3.38 1.553-6.216 3.015-8.01a20.749 20.749 0 00-4.048-4.222zm-9.047-3.665c-3.663-.248-6.54 1.186-8.75 3.207.02 1.537.24 3.035.547 4.396 2.9 1.666 6.012 3.173 9.046 4.515.735-.407 1.827-.648 3.162-.598-.693-4.882-.662-8.33-.258-10.736-1.331-.456-2.579-.705-3.747-.784zm-10.817 5.483c-.09.118-.18.237-.267.356l.396.26c-.046-.212-.086-.41-.13-.616z" fill="#FFAB00"/><path d="M934.035 267.563s1.27-16.42 17.523-14.563c10.093 1.153 15.628 6.53 19.218 15.095-3.05-1.733-8.187-4.243-12.405-4.283-6.45-.061-6.548 2.87-3.812 5.412 2.36 2.19 12.481 2.279 18.675 6.202.963 3.552 1.77 7.461 2.535 11.684.15.832.293 1.67.43 2.51-4.581-3.634-15.052-11.473-19.196-10.72-5.16.938 7.963 9.262 19.744 14.337.792 5.639 1.307 11.283 1.642 16.356-2.402-3.737-7.476-11.221-9.169-10.559-2.154.843.452 5.457 9.356 13.664.507 9.259.418 15.95.418 15.95-8.894-10.946-22.675-16.224-27.953-18.96-.047-.025-.102-.051-.154-.077-.009-1.94.09-4.955.671-7.645.949-4.398-.908-5.18-2.178-5.277-1.069-.083-5.524 4.172-5.634 10.07-.847-.325-1.739-.672-2.664-1.037.61-3.979 1.712-11.311 1.85-13.138.193-2.542-.003-6.06-1.86-6.158-1.738-.091-5.699 2.643-3.079 18.047-4.066-1.682-8.504-3.694-12.531-6.007-.984-4.37-1.084-10.171 3.49-14.093 8.21-7.036-.262-7.72-4.04-3.909-3.493 3.524-3.832 7.855-1.935 16.498-5.723-3.658-10.15-7.981-10.64-12.882-1.368-13.683 21.698-16.517 21.698-16.517" fill="#FFC95C"/><path d="M939.001 265.026c.196 2.443 5.669 8.503 7.33 8.21 1.662-.293.391-2.444.391-2.444-4.887-9.09-7.916-8.21-7.72-5.766m-.897-7.397c-3.632 4.295-4.07 9.934-4.07 9.934s-2.85.35-6.487 1.4a256.472 256.472 0 004.134 6.814c7.313 4.536 11.099 8.168 11.931 9.005l.078.08.1.102s5.725-4.209 10.934-10.942c-2.34-4.046-7.837-12.619-13.671-15.056a54.15 54.15 0 01-2.949-1.337zm-14.358 12.618c-.383.151-.767.31-1.15.477.948.475 1.867.948 2.747 1.417a75.831 75.831 0 01-1.597-1.894zM951.558 253c-3.118-.356-5.684-.038-7.796.706.504.359 1.003.737 1.494 1.144 3.032 2.506 6.061 6.36 8.496 9.876.847-.58 2.332-.936 4.62-.914.74.008 1.509.094 2.289.235 3.667.666 7.6 2.62 10.115 4.049-1.963-4.685-4.51-8.413-8.064-11.02a19.68 19.68 0 00-2.05-1.315c-2.325-1.295-5.027-2.19-8.198-2.644-.298-.043-.6-.082-.906-.117z" fill="#FFAB00"/><path d="M976.953 323.171c-.243.096-2.189-4.563-5.533-11.273-.85-1.671-1.594-3.12-2.315-4.421-.7-1.313-1.376-2.476-2.028-3.61-.638-1.141-1.31-2.219-1.993-3.368-.671-1.155-1.437-2.33-2.26-3.67-.408-.672-.801-1.275-1.17-1.827-.367-.553-.702-1.062-1.013-1.533-.61-.952-1.175-1.722-1.678-2.433-.504-.71-.96-1.35-1.422-1.998l-1.532-1.974c-.35-.45-.704-.917-1.082-1.382l-1.204-1.394-1.265-1.456c-.436-.491-.896-.98-1.37-1.475a73.468 73.468 0 00-6.49-6.042 45.83 45.83 0 00-5.69-3.978c-1.521-.897-2.495-1.38-2.441-1.5.059-.137 1.185.225 2.573.905 1.391.673 3.015 1.69 4.183 2.566a71.837 71.837 0 015.38 4.446c1.553 1.428 3.114 2.919 5.01 5.166 3.284 3.804 5.667 7.19 7.602 9.936 1.917 2.76 3.31 4.94 4.344 6.559.554.906 1.25 2.07 1.97 3.379.708 1.316 1.502 2.742 2.242 4.18l.954 1.785.81 1.552a75.89 75.89 0 011.839 3.734c2.927 6.422 3.784 9.047 3.579 9.126" fill="#FFF"/><path d="M945.848 296.496c-.25-.072-.037-1.23.526-2.87.57-1.636.76-2.45 1.364-3.783.622-1.325.865-1.73 1.252-2.477.522-.922 1.025-2.136 2.055-3.27.443-.485.885-.885 1.254-1.112.361-.236.632-.3.688-.204.085.14-.077.366-.286.63-.217.256-.489.564-.721.784a5.342 5.342 0 00-.947 1.217c-.245.403-.467.83-.82 1.388-1.21 1.919-1.647 3.362-1.915 4.186-.145.46-.504 1.122-.773 1.807-.253.645-.276.957-.589 1.706-.616 1.486-.858 2.066-1.088 1.998M933.558 291.402c-.255-.047-.07-1.636.676-3.861.374-1.112.668-1.929.971-2.693.304-.764.62-1.477 1.118-2.338.5-.86.876-1.401 1.201-1.847a25.9 25.9 0 01.968-1.238c.478-.545 1.005-1.152 1.657-1.746.66-.584 1.449-1.155 2.4-1.561a8.329 8.329 0 012.159-.613c.57-.044.916-.021.928.097.016.156-.321.326-.756.464a7.985 7.985 0 01-.693.246c-.237.08-.466.174-.673.23a6.011 6.011 0 00-1.819.96c-.511.364-.976.804-1.627 1.39a13.112 13.112 0 00-2.355 2.928c-.518.877-.84 1.596-1.065 2.132-.249.593-.75 1.462-1.121 2.376-.348.86-.403 1.269-.787 2.284-.735 2.024-.942 2.84-1.182 2.79M966.685 277.815c-.13.222-1.901-.674-4.63-1.807-2.74-1.105-4.12-1.422-6.492-2.118a24.265 24.265 0 00-1.523-.412l-1.129-.284c-.668-.155-1.214-.247-1.912-.382-.44-.097-.91-.149-1.402-.202l-1.545-.163c-1.08-.04-2.242-.163-3.494-.18-.54-.016-1.054-.056-1.518-.05a40.56 40.56 0 01-1.231.016c-.7-.005-1.137-.047-1.15-.166-.017-.157.433-.303 1.039-.412.302-.056.642-.102.979-.135l.498-.041c.162-.003.318.004.463.01.555.027 1.038.036 1.487.035l.654-.007.63.024c.838.036 1.7.019 2.855.214 3.947.621 6.454 1.265 7.95 1.602.41.108.92.284 1.482.484.56.2 1.158.459 1.763.68 1.126.448 1.652.558 2.933 1.177 2.52 1.253 3.41 1.922 3.293 2.117M973.922 298.148c-.215.147-.949-.71-2.19-1.844-1.261-1.115-2-1.46-3.194-2.173-.295-.189-.558-.312-.783-.423l-.588-.295a25.403 25.403 0 00-1.028-.394c-.234-.104-.502-.14-.773-.208-.276-.052-.557-.14-.861-.165-.304-.033-.618-.07-.944-.117-.325-.062-.668-.044-1.02-.091-.612-.09-1.162-.053-1.564-.075-.402-.02-.658-.072-.675-.19-.051-.304 1.03-.56 1.714-.527.65.082 1.134.038 1.626.077l.767.067.43.052c.148.034.303.077.47.124 2.257.666 3.609 1.367 4.434 1.747.22.119.48.305.76.515.28.212.56.475.859.706.537.466.834.601 1.396 1.222 1.08 1.253 1.351 1.863 1.164 1.992" fill="#FFF"/><path d="M846.964 309.055c-2.688-7.525-10.8-12.119-12.364-11.044-1.563 1.076 1.096 2.248 1.096 2.248 6.626 3.197 11.268 8.796 11.268 8.796m-1.026 3.91c-4.915 2.383-9.601 2.952-13.742 4.445-2.944-6.678-6.196-6.501-6.196-4.152 0 1.793 2.524 4.058 3.87 5.138-3.043 1.514-5.72 3.9-7.878 8.447 0 0-.977-3.518-4.398-6.645-1.906-1.743-4.995-4.578-7.544-7.306 2.01-7.658 8.638-6.304 9.206-7.062.586-.782-.586-3.03-5.828-1.368-3.361 1.065-4.798 4.097-5.397 6.138-1.064-1.303-1.861-2.49-2.165-3.402-1.075-3.225-1.466-10.946 4.984-15.54 6.451-4.593 13.977-3.127 17.398 1.857 0 0 5.881-7.83 16.672-3.573 10.792 4.257 10.694 18.332 1.018 23.023" fill="#FFC95C"/><path d="M827.75 294.877c.216.144-.85 1.938-2.169 4.744a35.266 35.266 0 00-1.414 3.497 87.214 87.214 0 00-1.046 3.227 40.113 40.113 0 00-.744 2.774c-.165.7-.271 1.27-.39 2.005-.304 1.86-.366 4.139-.253 6.752.079 2.266.54 4.01.287 4.074-.153.039-.37-.41-.578-1.025-.186-.62-.353-1.406-.383-2.018a94.515 94.515 0 01-.187-2.915 19.17 19.17 0 01.08-3.015c.256-2.091.597-3.788.903-5.162.312-1.371.576-2.424.797-3.198.235-.862.788-2.133 1.329-3.373.512-1.166.664-1.71 1.376-3.024 1.443-2.58 2.205-3.47 2.391-3.343" fill="#FFF"/><path d="M809.882 301.83c-.206-.16.573-1.243 2.205-2.191l.573-.33c.185-.094.36-.18.526-.264.328-.18.641-.307.944-.433l.453-.19c.154-.053.312-.1.472-.148.324-.09.658-.215 1.052-.264l.995-.158.74-.047c.435-.03.785-.055 1.236-.039.285.007.583.005.898-.002.314-.002.64.033.981.051.34.032.701.028 1.063.106.363.07.739.149 1.123.245.165.045.327.079.48.126.15.054.296.104.434.153.277.097.522.189.725.272.406.168.64.308.603.422-.1.298-1.212.138-1.862-.101-.634-.192-1.127-.246-1.622-.314-.496-.06-1.006-.042-1.694-.14-2.378-.259-3.902.267-4.729.569-.467.162-1.226.323-1.922.627a4.972 4.972 0 00-.78.414c-.228.146-.48.278-.836.492-.72.403-1.185.746-1.495.95-.314.203-.47.272-.563.195M821.517 311.51c.087-.255.795-.07 1.446.627.321.345.55.607.753.866.097.133.19.262.282.403.086.144.163.3.244.48.295.725.334.971.465 1.393.142.535.432 1.161.466 1.942.01.672.016 1.192-.22 1.215-.314.028-.521-.487-.507-.825-.004-.647-.232-.92-.357-1.572-.179-1.14-.633-1.765-.893-2.097-.154-.18-.256-.54-.461-.833-.195-.274-.35-.327-.58-.633-.487-.59-.731-.74-.638-.966M823.56 303.467c-.01-.263 1.41-.376 3.377.164l.69.191.607.196.554.177.508.195c.67.241 1.276.537 2.02.961.726.456 1.2.76 1.57 1.059.37.292.697.495 1.06.822.462.412 1.024.806 1.553 1.331.27.256.56.515.835.807.264.305.53.626.795.967l.33.428c.102.141.19.286.277.418.173.268.325.51.446.717.24.414.353.688.254.755-.263.174-1.102-.72-1.507-1.36a13.129 13.129 0 00-1.184-1.368c-.403-.373-.829-.731-1.357-1.28-1.88-1.817-3.467-2.537-4.377-2.901-.252-.108-.556-.278-.906-.44-.345-.17-.722-.365-1.117-.501a6.137 6.137 0 00-.931-.284c-.29-.07-.592-.159-1.034-.28-.873-.26-1.496-.38-1.892-.478-.398-.101-.57-.175-.572-.296" fill="#FFF"/><path d="M874.61 217.268c1.076 2.501 3.421.529 4.399 0 .977-.529 3.811-1.8 7.428-.04 0 0 2.248.39 1.27-1.27-.977-1.662-4.887-4.496-8.21-4.106-3.323.391-5.961 2.915-4.886 5.416m41.28-2.679c1.529 1.955 21.076-.39 21.076-.39s3.128-.392.586-1.956c-3.133-1.928-14.367-1.857-18.081-1.172-3.714.684-5.108 1.564-3.58 3.518m21.76 45.937c.194 2.443 5.668 8.503 7.33 8.21 1.661-.293.39-2.444.39-2.444-4.886-9.09-7.916-8.21-7.72-5.766m-62.357-54.635c7.428-.782 18.277 11.728 18.277 11.728s.586-9.285 2.736-12.901c2.15-3.617 14.172-8.015 33.427-.978 15.572 5.692 25.58 17.33 29.821 31.656-3.332-2.51-10.578-7.194-22.1-10.74-16.518-5.082-20.036-4.691-20.036-2.639s18.374 3.91 28.539 9.48a225.409 225.409 0 0114.82 8.894 58.11 58.11 0 01.818 5.572c.255 2.613.077 5.157-.415 7.604-2.809-3.668-8.243-9.72-16.983-15.423-13.78-8.992-22.87-10.849-24.825-9.383-1.954 1.466 11.24 5.18 18.472 9.285 6.341 3.6 16.738 12.607 21.642 21.096-.958 2.365-2.162 4.598-3.485 6.664-2.418-4.012-7.255-11.453-12.096-15.456-6.842-5.658-15.15-6.538-16.225-4.973-1.075 1.563 4.3 5.863 12.022 9.09 5.834 2.436 11.331 11.01 13.671 15.055-5.21 6.733-10.935 10.942-10.935 10.942s-3.75-4.003-12.109-9.187c0 0-8.24-13.013-10.175-18.599-1.954-5.64-4.887-4.084-5.375-2.32-.449 1.617.837 7.682 9.213 17.283a130.48 130.48 0 00-10.68-5.063 163.65 163.65 0 01-2.475-1.069c-.56-2.973-1.943-10.999-1.63-16.328.391-6.646-.977-10.067-4.104-10.654-3.04-.57-8.107 10.002 2.11 25.33-8.767-4.157-14.985-8.297-19.981-12.984-.446-2.66-.706-6.76 1.06-9.804 2.834-4.887 5.864-11.338 1.172-14.27-4.466-2.792-10.432 5.142-7.872 17.972-1.794-2.221-3.47-4.58-5.127-7.123-8.014-12.301-8.6-26.976-1.172-27.757" fill="#FFC95C"/><path d="M941.75 277.82c-.122.05-.735-1.21-1.945-3.335a114.29 114.29 0 00-5.374-8.543c-2.38-3.425-4.314-5.826-6.185-8.055l-1.396-1.655-1.45-1.642c-.968-1.13-2.048-2.259-3.22-3.559-4.79-5.136-6.351-6.766-9.139-9.68-3.504-3.706-7.941-7.99-12.667-13.35-2.028-2.318-3.77-4.466-4.877-6.133-1.119-1.66-1.56-2.83-1.463-2.868.153-.068.804 1.042 1.832 2.379 1.005 1.353 2.376 2.941 3.393 4.184 1.974 2.363 3.565 4.02 5.18 5.706 1.62 1.683 3.294 3.375 5.534 5.74 7.643 8.102 12.75 13.211 15.646 16.37 1.598 1.746 3.919 4.596 6.095 7.471 1.007 1.368 1.768 2.32 2.512 3.376a66.021 66.021 0 012.607 3.843c2.087 3.34 3.349 5.774 4.085 7.364.734 1.593.941 2.344.833 2.388" fill="#FFF"/><path d="M928.172 218.495c-.037.258-2.491.02-6.144-.263a74.26 74.26 0 00-4.457-.204l-4.015-.057c-1.535-.02-2.549 0-3.398.019a48.22 48.22 0 00-2.412.126 33.008 33.008 0 00-3.636.48c-1.308.245-2.714.553-4.172 1.014-1.265.386-2.32.916-3.028 1.37-.37.21-.635.42-.834.553-.201.13-.333.185-.377.144-.057-.054 0-.197.14-.403.14-.204.355-.48.66-.72.149-.124.306-.26.476-.385l.542-.338c.36-.237.755-.383 1.088-.53.318-.144.633-.226.92-.337.287-.11.564-.197.832-.277a28.484 28.484 0 011.53-.452c.501-.148 1.015-.247 1.578-.379.566-.098 1.182-.22 1.9-.292 2.456-.26 4.48-.349 6.126-.416 1.645-.06 2.913-.1 3.855-.117 1.042-.024 2.654.12 4.233.231 1.487.108 2.142.068 3.877.275 3.43.428 4.75.73 4.716.958M916.837 226.208c-.083.248-1.429-.08-3.424-.574-2.002-.48-2.985-.548-4.674-.862-1.694-.285-2.242-.354-3.222-.426-1.24-.09-2.744.012-4.411.277-.719.121-1.346.308-1.775.49-.437.168-.707.295-.785.19-.091-.117.107-.415.47-.684.18-.13.393-.27.62-.36.223-.106.453-.184.658-.225a30.2 30.2 0 011.935-.384 10.01 10.01 0 012.011-.147c1.402.07 2.542.185 3.47.273l2.175.216c.59.058 1.469.326 2.339.538.817.203 1.196.205 2.137.508 1.858.612 2.55.95 2.476 1.17M935.605 241.642c-.147.216-2.302-1.113-5.6-2.926a61.55 61.55 0 00-4.093-2.057 212.897 212.897 0 00-3.764-1.685 69.013 69.013 0 00-3.23-1.323 42.398 42.398 0 00-2.341-.818c-2.177-.7-4.885-1.275-8.03-1.636-1.36-.16-2.584-.152-3.467-.148-.881.029-1.43.04-1.45-.085-.025-.152.545-.345 1.318-.493.387-.053.823-.104 1.255-.13a20.52 20.52 0 011.23.012c.704.07 1.32.096 1.887.169l.829.081.796.103c1.06.13 2.134.32 3.57.703 2.439.7 4.403 1.4 5.993 1.988 1.587.593 2.805 1.065 3.7 1.435.997.4 2.46 1.196 3.9 1.96 1.353.725 1.983.967 3.52 1.903 3.024 1.875 4.106 2.758 3.977 2.947M901.832 228.994c.073.255-1.076.665-2.478 1.793-.704.556-1.125 1.077-1.503 1.57-.203.235-.352.502-.53.764l-.278.406-.265.464c-.403.637-.583 1.105-.762 1.483-.191.375-.283.704-.415 1.12-.082.263-.18.537-.24.836l-.157.945c-.143.65-.154 1.377-.295 2.144-.069.33-.072.65-.1.937a15.92 15.92 0 01-.076.766c-.058.435-.133.706-.253.71-.315.015-.445-1.16-.381-1.888.207-1.38.06-2.083.424-3.528.668-2.446 1.438-3.926 1.906-4.796.143-.232.336-.526.595-.81.273-.273.541-.596.851-.873.568-.533.77-.832 1.556-1.318.78-.472 1.38-.688 1.777-.78.395-.095.597-.058.624.055M896.874 223.243c-.135.226-1.598-.526-3.837-1.5a27.24 27.24 0 00-2.787-1.029c-.81-.256-1.58-.469-2.56-.741-1.966-.516-2.618-.603-3.773-.713-1.464-.123-3.248.042-5.152.657-.834.255-1.498.668-1.995.94-.472.31-.785.489-.87.4-.107-.114.113-.45.474-.836.195-.173.426-.356.661-.526a7.26 7.26 0 01.726-.388c.217-.097.429-.163.622-.243a5.24 5.24 0 01.564-.202l.526-.177.517-.139a8.959 8.959 0 012.398-.322c1.686.022 3.047.23 4.147.417 1.1.194 1.938.384 2.562.522.69.163 1.701.593 2.69.997.931.384 1.371.475 2.42 1.018 2.063 1.097 2.785 1.669 2.667 1.865M914.524 242.296c.04.125-.192.298-.528.663-.335.36-.755.927-1.08 1.717-.188.382-.243.764-.34 1.088-.067.337-.092.651-.136.95-.04.298-.026.6-.05.91a267.3 267.3 0 01-.029.48l.003.528c0 .37-.015.678-.004.945l.046.7c.035.412.027.748.11 1.173.081.538.19 1.13.342 1.769.172.636.331 1.328.472 2.08.286 1.29.534 2.31.305 2.383-.299.1-.753-.95-.898-1.643a27.239 27.239 0 00-.42-1.635l-.22-.768a5.605 5.605 0 01-.185-.932c-.066-.61-.164-1.157-.217-1.662a35.495 35.495 0 00-.149-1.37c-.04-.41-.05-.777-.08-1.099-.029-.322-.056-.6-.047-.84a7.77 7.77 0 01.082-.973l.266-1.163c.118-.368.173-.64.256-.925.053-.138.109-.282.178-.441.066-.16.148-.336.287-.527.503-.772 1.035-1.183 1.408-1.363.38-.177.596-.157.628-.045" fill="#FFF"/></g><g mask="url(#b)"><path d="M414.878 98.873c-6.245-.878-11.426.28-15.397 3.442-6.37 5.07-7.294 13.442-7.361 14.153l-1.91 13.594c-.013.09-.015.18-.009.267a3.331 3.331 0 00-.107.477c-.243 1.728.904 3.318 2.56 3.551 1.658.233 3.198-.98 3.44-2.708.244-1.729-.902-3.319-2.56-3.552a2.914 2.914 0 00-.5-.023l1.586-11.285.007-.067c.007-.078.748-7.917 6.423-12.435 3.41-2.714 7.944-3.696 13.477-2.919a1.26 1.26 0 00.351-2.495" fill="#020241"/><path d="M387.348 131.124c-.444 3.158.27 5.87 1.595 6.055 1.324.187 2.758-2.223 3.202-5.38.444-3.159-.27-5.87-1.595-6.056-1.324-.186-2.758 2.223-3.202 5.381" fill="#C0DFFF"/><path d="M390.611 139.956c.999.14 1.931-.561 2.071-1.56l1.798-12.791a1.839 1.839 0 00-1.56-2.071 1.839 1.839 0 00-2.071 1.56l-1.798 12.792c-.14.998.562 1.93 1.56 2.07" fill="#020241"/><path d="M406.523 102.434s-11.007 2.237-14.904.703c-3.896-1.536-10.917 11.679-1.1 18.131l17.615 2.475 8.048 3.616.489 14.062 7.61 4.28 4.735-9.015s6.952-12.02 1.074-24.03c-5.879-12.013-12.632-13.126-23.567-10.222" fill="#4A371E"/><path d="M393.952 115.8s-4.17 3.528-4.231 10.208c-.061 6.68.93 10.55-.107 14.023-1.036 3.472-1.629 13.15-1.035 14 .593.852 14.211 5.397 14.211 5.397l1.397.197-1.315 9.356 7.608 9.075 13.669-6.742.348-2.475-.245-26.354 3.395-6.212-.836-9.658-2.479-6.545-13.14-7.165-12.918-.938-4.322 3.834z" fill="#E9C09A"/><path d="M410.476 128.925s-3.173-3.955-7.975-1.778M393.856 127.796s-1.754-1.563-3.226-.454" stroke="#DA9656" stroke-width="1.6" stroke-linecap="round"/><path stroke="#DA9656" stroke-linecap="round" d="M396.342 133.519l-.953 6.775 1.936.272"/><path d="M404.472 133.41c-.155 1.104.241 2.073.885 2.163.644.09 1.291-.731 1.446-1.836.155-1.104-.24-2.072-.884-2.163-.644-.09-1.292.732-1.447 1.836M391.322 132.813c-.155 1.104.241 2.073.885 2.163.643.09 1.291-.731 1.446-1.835.155-1.104-.24-2.073-.884-2.163-.644-.09-1.292.731-1.447 1.835" fill="#212B36"/><path d="M417.119 132.381s-2.181-6.722-.19-12.693c0 0-15.958 3.081-24.689-1.877l-.21-9.189 24.182-.22 7.67 6.287 3.023 5.414 2.107 4.903.729 6.517-1.642 7.007-3.847 3.956-1.774-.25s2.858-2.778 3.147-7.179c.29-4.4-4.95-9.25-8.506-2.676" fill="#4A371E"/><path d="M422.478 142.237s-1.067-1.01-2.42-.34c-1.352.668-1.35-9.128-1.35-9.128l-.1-3.962-.968-.136s.455 17.83-2.88 20.486c-3.334 2.657-6.33-.396-7.605-2.55-1.274-2.153-3.048-4.75-5.606-4.1-2.559.65-4.33 1.553-6.037.82-1.707-.733-2.112-1.614-4.356-.612-2.244 1.002-3.16 8.822-2.782 12.384.377 3.562 3.241 7.365 10.108 7.672 6.866.306 23.258-3.97 23.996-20.534" fill="#4A371E"/><path d="M401.55 147.959s-3.051 2.203-6.31.429M411.395 134.624c-.885-.446-1.477-.529-2.497-.414" stroke="#DA9656" stroke-linecap="round"/><g><path d="M420.051 145.479c3.04.427 5.878-1.711 6.306-4.752l1.12-7.97c.427-3.04-1.711-5.878-4.752-6.306-3.04-.427-5.878 1.711-6.305 4.752l-1.12 7.97c-.428 3.041 1.71 5.878 4.751 6.306" fill="#020241"/><path d="M428.069 138.02c-.646 2.013-2.107 4.649-5.383 5.228-2.708.394-4.43-1.507-4.482-3.504l.384-2.73.431-3.07.384-2.73c.6-1.905 2.78-3.257 5.274-2.133 2.99 1.46 3.667 4.397 3.733 6.51" fill="#C0DFFF"/><g transform="scale(-1 1) rotate(-8 508.984 3151.095)"><mask id="d" fill="#fff"><use xlink:href="#c"/></mask><use fill="#020241" xlink:href="#c"/><path fill="#020241" mask="url(#d)" d="M-3 19H8v20H-3z"/></g></g><g><path d="M424.509 165.294s-8.264 8.581-21.295 1.956c-4.887-.217-9.665.435-11.837 1.412-2.172.977-11.512 4.344-11.512 4.344l.543 60.814.76 23.132 4.127 6.515 45.719 4.452 14.118-5.103.869-26.28 20.85-7.277 1.846-21.828-19.764-29.538s-2.389-3.15-5.213-4.67c-2.823-1.52-16.811-7.279-19.211-7.929" fill="#EF7457"/><path d="M440.234 177.01c.258.274-1.544 2.143-2.886 5.74a21.187 21.187 0 00-.728 2.429c-.134.748-.297 1.413-.372 2.075l-.211 1.984c-.033.682-.07 1.397-.108 2.199-.07 1.606.032 2.676.024 3.57.074.893.163 1.614.27 2.538.272 2.346 1.112 5.076 1.915 8.276.78 2.739 1.513 4.88 1.17 5.016-.432.176-1.455-2.062-1.89-3.523-.421-1.393-.673-2.45-1.036-3.493-.16-.528-.364-1.05-.502-1.647a44.718 44.718 0 01-.411-2.01c-.838-5.205-.888-8.647-.88-10.693.053-1.131.385-2.863.834-4.527.445-1.557.54-2.284 1.376-4.011 1.832-3.342 3.248-4.171 3.435-3.922" fill="#EC5632"/></g><g transform="matrix(-1 0 0 1 443.211 167)"><path d="M66.128 0h81.778a4 4 0 013.892 4.924L139.33 57.462A2 2 0 01137.385 59H0a3.968 3.968 0 013.968-3.968h45.94L62.236 3.076A4 4 0 0166.128 0z" fill="#43A0FF"/><circle fill="#EAFAFF" cx="103.966" cy="30" r="4"/></g><path d="M475.105 216.607s-.977-9.284-9.557-9.718c-8.58-.435-47.348 4.18-51.366 4.859-4.018.679-9.23.57-9.23.57s-7.494-7.167-9.231-7.602c-1.738-.434-6.625 0-6.625 0l1.629 5.43s7.168 9.99 8.145 10.317c.977.326 43.873 4.453 52.56 5.213 8.689.76 25.52 2.713 23.675-9.07" fill="#E9C09A"/></g><g mask="url(#b)"><path stroke="#020241" stroke-linecap="round" d="M224.447 74.01l-4.983-2.607"/><path d="M224.513 58.615s-.163 4.56-2.117 6.842c-1.955 2.28-2.444 7.004-2.77 8.959-.326 1.955-4.235 16.778-14.986 20.362-2.28.163-3.91-1.141-3.91-1.141V103.9l-12.054 7.168-9.448-5.865-.977-6.841s8.796-11.566 9.448-27.855c-.978-1.467-2.607-4.725-.978-8.96 1.629-4.235 4.562-11.24 4.562-11.24l7.656-4.724 18.08 1.303 7.494 11.729z" fill="#F7D4BA"/><path d="M210.504 63.176s-3.909-2.77-7.98-.814M221.255 67.374s-2.606-1.83-4.56 0" stroke="#CA9" stroke-width="1.6" stroke-linecap="round"/><path stroke="#CA9" stroke-linecap="round" stroke-linejoin="round" d="M211.544 75.067l-1.04 4.072-1.678-.814"/><path d="M214.088 70.343s-1.453-1.629-3.903-.978" stroke="#020241"/><path stroke="#020241" stroke-linecap="round" d="M200.405 65.295l-5.538-4.074"/><path d="M210.185 69.212s-.495-3.02-4.65-3.917c-4.153-.897-5.538.406-5.538.406s-2.85 4.968 2.526 7.33c5.816 2.556 7.662-3.82 7.662-3.82zM224.447 74.01s-.496-3.02-4.65-3.917c-4.154-.897-5.538.405-5.538.405s-2.851 4.97 2.525 7.331c5.816 2.556 7.663-3.819 7.663-3.819z" stroke="#020241"/><path d="M210.185 83.864l-8.47-3.584s-1.14 3.99 3.176 5.376c4.372 1.402 5.294-1.792 5.294-1.792" fill="#FFF"/><path d="M204.043 69.128c-.299.728-.238 1.443.136 1.597.374.154.921-.311 1.22-1.039.3-.728.24-1.443-.135-1.598-.375-.153-.92.312-1.22 1.04M216.884 73.357c-.299.728-.238 1.443.136 1.597.375.154.921-.311 1.22-1.039.299-.728.239-1.443-.135-1.598-.374-.153-.921.312-1.221 1.04" fill="#212B36"/><path d="M194.866 104.022c-7.819-9.76-2.172-20.876-2.172-20.876 2.71 6.477 6.397 9.448 8.036 10.513V103.9l-3.86 2.295c-.622-.566-1.288-1.279-2.004-2.173" fill="#CA9"/><path d="M227.282 47.538s2.606 6.68 5.864 8.308c3.258 1.63-1.895 10.381-9.826 8.122 0 0-.436-3.399-2.88-3.56 0 0-10.425 1.628-19.71-7.658 0 0-.489 6.517-5.864 8.471 0 0-3.747-4.724-8.146.326 0 0-.9 1.921-.687 3.748 0 0-2.08-5.05-2.407-8.879-.325-3.828 0-11.484 1.792-13.765 1.792-2.28 8.96-7.493 14.498-9.122 5.538-1.629 24.433-.163 27.366 14.01" fill="#212B36"/><g><path d="M212.621 212.551s5.484 27.53 9.177 57.068c3.692 29.538 9.991 113.158 6.95 115.765-3.04 2.605-21.502 3.474-23.457 2.605-1.954-.868-22.805-121.41-22.805-123.366 0-1.954-4.778 122.28-7.602 123.692-2.824 1.412-21.937 1.847-23.24 0-1.303-1.846-16.724-156.27-6.298-179.243 2.388-7.652 19.33-15.254 19.33-15.254l38.226 7.137 9.72 11.596z" fill="#020241"/><path d="M182.178 262.232c-.385.041-.793-2.172-1.163-5.483-.372-3.313-.721-4.87-.963-7.66-.24-2.79-.286-3.689-.445-5.289-.167-2.025-.627-4.445-.774-7.283-.125-2.448-.255-4.377.099-4.414.465-.049.889 1.99.939 3.276.102 2.463.506 3.625.703 6.214.284 4.431.77 7.275 1.062 8.951.162.927.182 2.391.313 3.817.122 1.343.31 1.913.398 3.49.173 3.121.18 4.344-.17 4.381M183.69 214.995c.388-.007.588 1.554.647 3.876.06 2.324.264 3.427.245 5.38-.022 1.952-.06 2.58-.05 3.7-.008.461.012.953.038 1.5l.042.861.04 1.241-.763.757c-.221.21-.471.438-.734.664-1.301 1.112-2.305 2.012-2.557 1.761-.33-.33.545-1.498 1.238-2.072.383-.319.689-.612.965-.9l.4-.432.188-.213.036-.06-.013-.048c-.005-.004-.01-.027-.014-.117l-.025-.438a14.764 14.764 0 01-.01-1.025c.13-3.095-.09-5.099-.222-6.28-.076-.655.04-1.673.044-2.672.003-.94-.131-1.346-.071-2.447.119-2.18.225-3.03.576-3.036M177.42 214.996c.384-.038.671 1.103.86 2.82.19 1.718.452 2.52.542 3.97.088 1.45.085 1.918.158 2.748.056 1.053.382 2.3.376 3.78-.009 1.275.015 2.28-.338 2.314-.465.046-.776-1.003-.758-1.674.033-1.286-.306-1.876-.362-3.223-.042-2.307-.374-3.775-.573-4.64-.11-.478-.052-1.244-.104-1.984-.049-.698-.205-.988-.208-1.81-.003-1.627.055-2.266.406-2.3M214.092 225.728c-.083.38-1.123.292-2.343-.45-1.199-.746-1.828-1.081-2.629-1.976a9.382 9.382 0 01-.795-1.056 14.158 14.158 0 01-.512-.78c-.443-.726-1.136-1.54-1.469-2.7-.278-.996-.443-1.781-.116-1.885.446-.136.92.557 1.012 1.06.241.955.689 1.264 1.121 2.174.73 1.596 1.701 2.293 2.231 2.655.297.206.625.673 1.057 1.017.408.32.661.338 1.14.7.97.71 1.396.889 1.303 1.242M199.26 211.068c.08.383-2.658 1.092-6.805 1.428-4.142.303-6.132.488-9.63.309-3.493-.222-4.601-.426-6.592-.68-1.26-.158-2.641-.408-4.156-.624-1.493-.33-3.134-.606-4.811-1.214-.726-.25-1.42-.458-2.032-.697a51.284 51.284 0 01-1.603-.685c-.9-.407-1.426-.71-1.36-.875.186-.448 2.625.269 4.104.803 1.433.476 2.508.815 3.64.994l3.834.724c5.352 1.085 8.944.939 11.017.9 1.155-.054 2.945.085 4.707.03 1.656-.064 2.368-.224 4.304-.321 3.835-.226 5.316-.45 5.384-.092M158.036 212.164c.328.2-.29 1.543-1.587 3.269-1.303 1.716-1.839 2.62-3.124 3.919-1.315 1.269-1.796 1.614-2.59 2.3-1.042.81-2.22 1.972-3.97 2.725-1.516.633-2.81.83-2.875.515-.055-.227.212-.491.577-.714.182-.111.391-.213.603-.296.203-.111.41-.204.598-.267 1.453-.494 1.93-1.18 3.278-2.047 2.298-1.581 3.408-3.088 4.038-3.944.351-.477 1.056-1.081 1.637-1.775.554-.648.676-1.022 1.334-1.772 1.29-1.502 1.78-2.102 2.081-1.913" fill-opacity=".2" fill="#FFF"/></g><path d="M239.988 162.705s11.565 55.708 12.705 56.28c1.141.571 10.914.896 12.218 1.548 1.303.651 5.538 3.095 5.05 4.235l-.49 1.141h-28.343s-.326-2.77.814-4.236c-.976-2.117-12.705-25.249-15.8-49.846 0-6.353 13.846-9.122 13.846-9.122" fill="#F7D4BA"/><g><path d="M200.975 100.072s-4.724 5.457-12.38 4.724c-7.656-.733-10.344-6.434-10.344-6.434l-4.317 3.746-13.438 87.8 2.93 10.589s14.173 9.937 35.838 5.05c5.376-12.706 7.656-38.606 7.656-38.606l-2.606-57.502-3.34-9.367z" fill="#FFF"/><path d="M200.29 96.552s5.72-.96 8.536 5.23c0 0 14.058 3.747 17.316 9.286 3.257 5.538 13.846 42.678 13.846 42.678l-13.846 13.846-10.425.978-1.792 16.94s.325 23.132.651 24.435c.326 1.303 1.955 4.072.815 5.376-1.14 1.303-17.267 5.049-18.408 2.932-.977-3.421 2.444-116.634 2.444-116.634l.862-5.067zM178.975 97.324s-2.57-2.22-6.914 1.038c-3.258.977-17.81 5.755-20.416 8.253-2.607 2.498-20.308 49.92-20.634 51.078-.326 1.157 1.629 3.438 1.629 3.438l10.208-2.281 2.172 7.167s-5.755 39.627-6.081 40.882c-.326 1.254 0 2.123 0 2.123s18.787 10.827 22.153 9.866c0 0 .543.668 1.412-1.504.869-2.172 5.538-26.063 7.928-46.045 2.389-19.982 6.733-69.502 6.95-70.371.217-.87 1.266-3.145 1.593-3.644" fill="#4D5D8C"/><path d="M152.513 161.565s1.792-5.05 0-7.493c-1.791-.978-23.62 2.443-24.76 3.746-1.14 1.304-1.466 8.634 0 10.426 3.42 1.14 9.774 0 9.774 0l14.986-6.679zM243.41 161.324s1.302-4.272-2.607-8.694c-1.415-.97-16.29 8.694-16.29 8.694l-1.14 13.435s20.687-10.58 20.036-13.435M154.957 130.125c.387.017.486 1.691.396 4.166-.087 2.476.043 3.663-.1 5.739-.148 2.077-.226 2.742-.288 3.935-.113 1.507.01 3.339-.237 5.439-.213 1.812-.35 3.243-.706 3.228-.466-.021-.605-1.569-.479-2.519.24-1.821 0-2.722.16-4.646.33-3.286.238-5.433.182-6.698-.033-.701.148-1.777.215-2.84.064-1-.043-1.441.086-2.609.26-2.312.42-3.21.771-3.195M170.58 99.98c.316.223-.942 2.311-2.972 5.299-2.022 2.994-2.839 4.52-4.527 7.026-.835 1.253-1.387 2.096-1.77 2.784-.03.05-.057.098-.085.143-.008.029.021.044.041.064l.155.11.24.152.52.317c1.868 1.127 4.323 2.187 6.982 3.733 2.297 1.335 4.135 2.343 3.975 2.661-.21.418-2.313-.414-3.516-1.128-2.304-1.366-3.588-1.711-6.042-3.12-1.042-.624-1.988-1.161-2.865-1.731-.27-.172-.68-.476-.702-.817-.008-.18.001-.356.098-.538.038-.088.07-.185.112-.264l.085-.167a28.6 28.6 0 01.635-1.149l1.903-3.293c.508-.891 1.503-2.134 2.393-3.409.84-1.199 1.096-1.798 2.133-3.165 2.057-2.701 2.92-3.709 3.207-3.508M209.348 103.092c.357-.144 1.208 1.502 2.182 4.06.964 2.566 1.582 3.73 2.204 5.982.15.565.26 1.044.338 1.477.04.216.069.42.088.63.007.079.027.283.002.426a.859.859 0 01-.096.424c-.107.266-.336.42-.574.54-.276.123-.372.135-.538.197-.292.082-.585.173-.91.254-1.643.398-3.566 1.029-5.882 1.36-1.994.28-3.564.509-3.631.16-.088-.456 1.532-.987 2.578-1.118 2.002-.255 2.904-.727 4.977-1.136.885-.167 1.696-.343 2.388-.556.09-.024.168-.054.247-.082l.176-.063c.044-.023.103-.041.1-.097.005-.072.004-.04-.017-.21a5.689 5.689 0 00-.083-.421c-.282-1.13-.653-2-.911-2.635-.293-.703-.547-1.87-.924-2.975-.355-1.041-.64-1.446-1.02-2.68-.757-2.441-1.023-3.406-.694-3.537" fill="#394466"/></g><path d="M237.654 137.13s2.172.814 1.194 2.77c-.978 1.954-17.104 50.986-18.082 51.637-.976.652-26.062-8.307-36.162-16.778-.978-.815-.652-1.466 0-2.769.651-1.303 14.334-47.892 14.334-47.892s.816-1.629 1.793-1.14c.978.49 36.923 14.172 36.923 14.172" fill="#F4F6F8"/><g><path d="M192.536 145.798s-8.096 7.622-12.819 9.088c-4.725 1.466-20.688 2.607-32.09 5.376-11.404 2.769-15.476 7.167-15.476 12.705 0 5.539 12.217 7.005 18.896 5.376 6.678-1.63 31.953-13.512 33.883-13.52 1.928-.008 24.433-.317 24.433-2.44-.488-2.284-12.568-1.96-12.556-3.587.013-1.63 17.281-1.303 17.281-2.281 0-.977-1.342-2.117-2.544-1.954 0 0 2.381-2.281-2.669-2.77 0 0-.163-1.792-2.443-1.954-2.28-.164-14.335.814-14.335.814s3.485-2.213.44-4.853" fill="#F7D4BA"/><path d="M206.921 151.936c-.013.387-.858.535-2.112.545-1.256.015-1.85.206-2.9.174-1.05-.03-1.388-.06-1.989-.04-.764-.009-1.659.257-2.7.248-.917-.017-1.546.135-1.687-.194-.192-.437.605-.898 1.121-.887.973.01 1.398-.31 2.402-.31 1.706.068 2.788-.123 3.436-.25.358-.072.914.06 1.458.077.513.021.737-.107 1.336-.022 1.186.17 1.646.309 1.635.66M210.18 154.543c-.04.386-.937.467-2.26.429-1.326-.03-1.956.144-3.06.108-1.106-.028-1.461-.045-2.094-.016-.804.028-1.732.323-2.828.4-.947.078-1.656.287-1.798-.049-.186-.418.585-.944 1.136-.97 1.028-.091 1.466-.431 2.542-.488 1.824 0 2.977-.184 3.674-.305.383-.066.977.07 1.556.109.547.033.79-.082 1.428.028 1.258.227 1.739.406 1.704.754" fill="#CA9"/></g></g><g mask="url(#b)"><path fill="#96CAFF" d="M97 226h444v174H97z"/><path fill="#6DB5FF" d="M97 226h100v174H97z"/><path d="M406.825 280.115l-42-12a3.024 3.024 0 00-1.65 0l-42 12A3 3 0 00319 283c0 58.436 43.551 74.669 43.992 74.822a2.958 2.958 0 002.016 0 63.879 63.879 0 0022.149-15.366C397.123 332.14 409 313.444 409 283.001a3 3 0 00-2.175-2.886z" fill="#C0DFFF" fill-rule="nonzero"/></g><g mask="url(#b)"><path d="M61.037 399.715s-13.664-2.636-14.352-9.952c2.05-7.549 29.42-121.596 29.42-121.596s1.603-3.857 11.737-1.406c10.133 2.452 10.364 5.19 10.364 5.19L68.174 396.078s-3.153 1.025-5.898.361l-1.239 3.275z" fill="#43A0FF"/><path d="M61.364 398.777c.564.137 3.308-10.094 7.035-25.375 3.731-15.286 5.76-22.503 8.791-35.366l5.724-24.38c2.188-9.34 5.21-20.533 8.137-33.608l.541-2.356c-.617-.13-1.226-.257-1.804-.402l-.97-.253a36.611 36.611 0 01-1.809-.546 31.964 31.964 0 01-3.297-1.28c-2.035-.925-3.719-2.015-4.833-3.177-1.132-1.155-1.62-2.359-1.794-3.224-.163-.87-.132-1.393-.28-1.415-.146-.028-.465.562-.458 1.661-.004.55.14 1.201.401 1.898a7.944 7.944 0 001.277 2.043c2.267 2.653 6.128 4.342 9.06 5.246.642.198 1.27.376 1.831.521l.385.097c.038.008.074.016.108.021l.192.037c-.008.08-.033.17-.05.256l-.168.717-.394 1.646-.763 3.101-1.483 5.83c-.992 3.864-2.017 7.87-3.245 13.162-4.656 20.416-8.123 33.56-10.173 41.31-1.137 4.288-2.558 11.024-4.119 17.6-1.468 6.191-2.304 8.838-3.942 16.105-3.239 14.383-4.413 20.007-3.9 20.131" fill="#1A8CFF"/><path d="M78.449 269.271c.19.556 2.37 0 5.664.108 3.283.246 4.726.984 7.157 2.122.604.31 1.113.557 1.513.843l.578.368c.193.125.13.068.178.096.05.022.106.053.165.09.046.033.176.094.066.102-.065.036-.154.048-.3.051-.188.01-.38.02-.574.028-.286.022-.58.012-.876.018a24.708 24.708 0 01-3.814-.328c-1.17-.189-2.162-.564-2.9-.82-.717-.293-1.212-.437-1.372-.217-.206.28.107.79.667 1.314.294.233.646.468 1.009.67.376.172.76.32 1.1.415 1.324.304 2.288.5 3.29.675 1.002.147 2.047.245 3.445.052l1.319-.235c.435-.113.886-.203 1.25-.325l1.106-.335.137-.042c.029-.018.14-.017.064-.06l-.221-.198a117.51 117.51 0 00-.43-.389l-1.58-1.455c-.224-.226-.603-.476-.723-.568l-.497-.368a23.589 23.589 0 00-3.2-2.019c-.91-.512-2.516-.788-4.048-1.012-.726-.096-1.241-.204-1.798-.255-.554-.079-1.147-.094-2.002-.019-1.691.194-2.824.533-3.516.844-.691.316-.95.603-.857.85" fill="#1A8CFF"/><path d="M28.796 393.905s-.652-13.9 6.298-16.29c7.819.218 125.104 0 125.104 0s4.127.652 4.127 11.077c0 10.426-2.607 11.294-2.607 11.294H34.008s-1.737-2.823-1.737-5.646l-3.475-.435z" fill="#FFC95C"/><path d="M29.784 394.002c0 .58 10.59.842 26.318.87 15.735.032 23.227.308 36.441.23 13.218-.09 17.458-.12 25.044-.17 9.591-.071 21.181.234 34.578.005l2.417-.03c-.019-.628-.039-1.251-.033-1.846l.018-1.003c.02-.641.054-1.271.105-1.886.096-1.232.258-2.407.47-3.506.42-2.195 1.082-4.09 1.95-5.445.857-1.371 1.911-2.13 2.711-2.501.808-.364 1.324-.456 1.31-.606-.007-.148-.655-.32-1.722-.053-.534.125-1.135.417-1.75.836a7.973 7.973 0 00-1.686 1.72c-2.045 2.828-2.779 6.978-2.968 10.039a41.307 41.307 0 00-.076 1.904c0 .137-.003.27-.004.397l.004.109.011.196c-.079.01-.174.008-.262.01l-.736.006c-.577 0-1.139.003-1.69.005-1.105-.005-2.164-.01-3.196-.012l-6.016-.071c-3.987-.055-8.122-.11-13.554-.06-20.939.276-34.53-.001-42.544-.171-4.436-.098-11.318.105-18.075.135-6.363.029-9.133-.163-16.58-.045-14.742.234-20.485.416-20.485.943" fill="#FFAB00"/><path d="M159.677 380.153c-.496.316.557 2.304 1.226 5.53.533 3.25.155 4.824-.379 7.455-.158.661-.28 1.213-.464 1.67l-.222.648c-.076.218-.035.143-.05.196a1.308 1.308 0 01-.049.182c-.022.052-.05.192-.084.088-.05-.055-.083-.139-.12-.281l-.163-.551c-.089-.273-.147-.559-.223-.847a24.576 24.576 0 01-.578-3.783c-.09-1.181.041-2.236.116-3.013.115-.766.138-1.28-.113-1.384-.32-.135-.743.29-1.12.957a7.804 7.804 0 00-.415 1.139c-.078.405-.13.813-.144 1.167.017 1.358.053 2.341.118 3.357.093 1.007.243 2.046.76 3.36l.538 1.226c.212.397.406.814.61 1.139l.586.996.072.123c.025.023.05.132.074.048l.141-.262.277-.509 1.043-1.877c.166-.271.32-.699.381-.836l.241-.57c.628-1.474.983-2.68 1.211-3.585.283-1.005.173-2.632.03-4.173-.077-.728-.093-1.255-.175-1.807-.052-.558-.178-1.138-.45-1.951-.588-1.598-1.183-2.619-1.649-3.218-.469-.598-.809-.781-1.026-.634" fill="#FFAB00"/></g><g mask="url(#b)"><path d="M260.745 209.5v10h-3c-1.38 0-2.63-.56-3.535-1.464a4.984 4.984 0 01-1.465-3.536c0-1.38.56-2.63 1.465-3.536a4.984 4.984 0 013.535-1.464h3z" stroke="#43A0FF" stroke-width="3"/><path d="M259.245 204h22v16a6 6 0 01-6 6h-10a6 6 0 01-6-6v-16z" fill="#43A0FF"/><path d="M265.869 166.055c-.453-.347-1.708.948-2.045 3.396-.144 1.208-.163 2.126-.063 2.984a7.38 7.38 0 00.728 2.597c.5.956.765 1.372.996 1.815.204.437.382.789.523 1.27.446 1.21.398 2.76.517 4.532.115 1.557-.154 2.759.347 2.919.686.248 1.37-1.162 1.316-2.091-.03-.88.035-1.514.067-2.177a7.083 7.083 0 00-.17-2.253 26.732 26.732 0 00-1.351-3.69c-.223-.515-.33-.846-.453-1.2-.101-.343-.143-.649-.197-.899-.07-.559-.5-1.354-.551-2.227-.04-.818.144-1.153.209-2.095.213-1.894.596-2.588.127-2.88M276.04 183.006c-.127-.26-.594-.271-1.234.06-.626.327-1.477 1.015-2.009 2.21-.529 1.186-.594 2.2-.534 3.09.05.912.331 1.71.814 2.618.966 1.629 1.35 2.078 1.877 2.984.35.552.662 1.21.86 1.859.191.658.26 1.239.206 2.065-.092 1.438-.577 2.683-.052 2.876.64.272 1.47-.906 1.583-1.841.111-.872.245-1.541.253-2.276a4.462 4.462 0 00-.616-2.307c-.827-1.318-1.452-2.294-1.872-3.18-.443-.888-.639-1.55-.733-2.017-.083-.52-.493-1.243-.456-2.015.05-.723.33-.94.636-1.707.365-.764.82-1.244 1.062-1.598.255-.353.332-.584.214-.821" fill="#FFF"/></g><g mask="url(#b)"><g transform="translate(569 248)"><path d="M5 16v136H2V16h3zm16 0v136h-3V16h3zm37 0v136h-3V16h3zm-16 0v136h-3V16h3z" fill="#6DB5FF"/><path fill="#43A0FF" d="M2 106h56v3H2z"/><rect fill="#43A0FF" width="60" height="16" rx="2"/></g></g><g mask="url(#b)"><path d="M537.908 87.586s2.67 10.908 0 16.25c-2.671 5.344-5.565 10.019 0 13.58 5.565 3.562 20.035-2.45 20.035-2.45l-5.565-27.38-7.57-6.455-6.9 6.455z" fill="#744028"/><path d="M541.469 82.688s-2.465 27.484 10.24 33.837c4.007 2.004 7.569 0 7.569 0v5.788l17.586-1.336s-5.565-12.243-3.562-18.477c2.004-6.233 9.127-8.904 9.127-8.904l-18.476-19.59-15.806-1.113-5.342 6.68-1.336 3.115z" fill="#E9C09A"/><path d="M559.278 116.525s5.788-2.114 9.795-9.016c0 0 .556 6.598-2.894 11.035h-6.9v-2.019z" fill="#DA9656"/><path d="M551.487 92.038s3.896-2.448 7.012 1.67M542.805 94.598s1.001-1.225 2.894 0M548.812 102.61s-.891 4.917 0 5.13c.89.213 3.45 0 3.45 0" stroke="#DA9656" stroke-width="1.4" stroke-linecap="round"/><path d="M550.262 111.07l8.237-2.56s-2.004 6.012-8.237 2.56" fill="#FFF"/><path d="M555.914 98.226c.325.742.04 1.44-.64 1.56-.678.12-1.491-.386-1.816-1.128-.326-.744-.04-1.442.64-1.56.677-.12 1.49.386 1.816 1.128M545.98 99.622c.326.742.038 1.44-.64 1.56-.677.119-1.492-.387-1.817-1.13-.324-.742-.038-1.44.64-1.56.679-.118 1.492.387 1.817 1.13" fill="#212B36"/><path d="M535.681 76.01s-1.78 2.671-3.785 3.562c-2.003.89.06 11.797 9.38 10.685 0 0 .415-4.007 1.973-4.675 0 0 7.792 1.113 13.803-6.9 0 0 1.957 8.94 11.28 13.355 0 0 1.853-3.56 5.193-1.557s1.781 9.572-2.894 10.017c0 0 2.003 8.237 9.35 5.787 7.346-2.448 15.804-13.356 12.911-21.37-2.894-8.014-8.014-5.565-13.802-8.904-5.788-3.34-8.237-15.138-21.594-14.692-13.356.445-18.03 11.13-21.815 14.692" fill="#744028"/><g><path d="M503.848 362.342s-1.058-.834-.445-1.502c.612-.668 5.899-5.677 6.678-5.677.779 0 3.339 3.59 3.339 3.59l4.953-3.142s2.727 1.445 4.954 6.731c2.226 5.287-3.562 22.43-3.562 22.43l-20.814 9.014s-2.672-.779.668-9.46c3.338-8.682 6.12-12.912 6.12-16.586 0-3.672-1.891-5.398-1.891-5.398" fill="#DFE3E8"/><path d="M536.572 199.225s-26.88 37.732-46.915 68.62c-10.018 14.525-14.86 20.535-13.523 24.041 1.335 3.507 26.545 66.616 27.88 68.286 1.337 1.67 10.519 2.004 10.519 2.004l3.674-3.507s3.673-45.078-16.028-65.447c0 0 20.202-9.517 36.897-29.218 0 0-4.006 47.583-6.511 60.94-2.504 13.357-12.355 45.246-15.527 52.592-3.172 7.346-.501 11.02-.501 11.02l13.023-3.507s13.19-11.353 20.869-31.722c7.68-20.369 7.013-38.4 10.018-47.082 3.005-8.682 15.026-31.054 22.54-44.912 7.513-13.857 11.854-25.545 8.848-40.404-3.005-14.859-13.857-21.704-13.857-21.704h-41.406z" fill="#4D5D8C"/><path d="M503.403 360.84c.612-.668 5.899-5.677 6.678-5.677.779 0 3.339 3.59 3.339 3.59l4.953-3.142s3.67 7.525 1.598 9.95c-3.73 4.364-14.231 4.54-14.231 2.18 0-3.673-1.892-5.399-1.892-5.399s-1.058-.834-.445-1.502z" fill="#DFE3E8"/><path d="M514.1 359.602c-.263.294.045.778.283 1.593.225.83.002 1.244-.057 1.946-.097.72-.165.968-.328 1.373-.185.535-.705 1.013-1.038 1.748-.32.624-.62 1.104-.351 1.34.347.311.908-.053 1.09-.412.179-.335.339-.567.54-.778a2.42 2.42 0 00.553-.822c.496-1.3.826-2.156 1.015-2.72.086-.316-.033-.817-.12-1.289-.105-.44-.021-.68-.303-1.159-.59-.914-1.067-1.068-1.284-.82" fill="#919EAB"/><path d="M488.488 400.02s-1.001-2.783 1.336-5.12c2.337-2.338 17.475-6.568 18.922-8.793 1.447-2.227.89-6.79 1.335-7.68.446-.89 9.795-.557 10.24 0 .446.556.114 4.24.114 4.24s7.709-.655 11.478.112c1.876 3.55-.461 15.014-5.025 17.241h-38.4z" fill="#FFF"/><path d="M539.337 262.335c.386.022.646-1.344.917-3.387.278-2.045.62-2.984.872-4.691.267-1.707.346-2.258.566-3.223.237-1.236.837-2.633 1.25-4.325.354-1.466.799-2.566.459-2.722-.412-.193-1.146.934-1.33 1.736-.195.758-.406 1.293-.612 1.844a10.99 10.99 0 00-.606 1.91c-.535 2.745-1.002 4.486-1.303 5.52-.167.572-.175 1.499-.282 2.39-.096.84-.27 1.19-.306 2.184-.058 1.967.027 2.742.375 2.764M541.373 226.597c-.33.195.093 1.278.677 2.915.55 1.652.583 2.498.899 3.907.299 1.42.36 1.885.43 2.716.082 1.058-.101 2.321-.173 3.787-.03 1.276-.254 2.27.114 2.367.443.126.91-.94.95-1.652.038-1.352.386-1.98.324-3.414l-.415-4.928c-.056-.517-.371-1.267-.625-2.007-.244-.696-.223-1.045-.614-1.825-.79-1.529-1.272-2.04-1.567-1.866" fill="#394466"/><path d="M520.227 383.547c-.386-.008-.574.516-.869 1.273-.337.748-.7.958-1.086 1.472-.428.49-.592.647-.915.857-.41.292-1.025.337-1.673.632-.57.256-1.073.367-1.043.731.028.467.65.594 1.005.46.656-.307 1.07-.127 1.763-.499 1.105-.73 1.8-1.234 2.218-1.582.237-.187.384-.64.557-1.03.161-.372.352-.492.424-.973.113-.947-.04-1.33-.38-1.34M489.824 396.663c0 .387 2.818.56 7.003.58 4.187.022 6.18.205 9.697.152 3.517-.054 4.646-.103 6.664-.113 2.553-.047 5.636.156 9.2.004 3.076-.133 5.502-.207 5.502-.562 0-.467-2.602-.674-4.216-.59-3.092.158-4.596-.121-7.856-.045-5.572.183-9.19-.002-11.322-.115-1.18-.065-3.011.07-4.81.089-1.692.02-2.43-.107-4.411-.03-3.923.157-5.451.278-5.451.63" fill="#C4CDD5"/></g><g><path d="M554.158 123.092s1.335-.445 1.781-.779c.445-.334.779-3.42 3.339-3.77 2.56-.348 17.586-.57 19.145.542 1.558 1.112 1.446 4.007 2.56 4.898 1.112.89 14.914 7.457 19.589 15.136 4.675 7.681 4.564 26.492 6.678 34.505 2.116 8.014 3.34 23.04.557 26.825s-14.804 3.896-19.367 3.117l-5.788-4.675s-1.447 7.234-19.924 7.346c-18.476.111-26.156-7.012-26.156-7.012s2.003-12.022 0-19.479c-2.004-7.458-4.341-13.245-4.341-13.245s-4.675-12.578 3.562-23.263c0 0-.463-11.457 5.483-14.915 5.059-2.942 12.882-5.23 12.882-5.23" fill="#FFBA2E"/><path d="M561.868 166.27c-.331.2-.222.703.228 1.213.447.501.59.853 1.106 1.154.523.282.72.314 1.032.446.396.127.858.5 1.496.415.535-.062.925-.19.897-.53-.044-.47-.384-.663-.594-.595-.43.112-.58-.194-.996-.256-.77-.077-1.103-.564-1.252-.81-.084-.144-.357-.195-.552-.35-.18-.15-.16-.307-.396-.456-.467-.306-.671-.42-.97-.232M581.221 161.851c-.192-.086-.442.346-.404 1.013.025.67.282 1.56.737 2.523.925 1.921 1.367 2.826 2.361 4.252 1.005 1.426 1.354 1.866 1.912 2.696.735 1.03 1.407 2.418 2.506 3.808.949 1.198 1.671 2.16 1.964 1.958.384-.265-.151-1.453-.659-2.07-.971-1.187-1.147-1.96-2.096-3.263-1.667-2.195-2.494-3.787-2.976-4.725-.273-.52-.877-1.198-1.311-1.947-.413-.706-.469-1.076-.911-1.899-.436-.822-.634-1.41-.767-1.776-.127-.37-.191-.505-.356-.57M591.693 178.094c-.098-.375-.663-.396-1.256.021-.568.422-.943.591-1.238 1.148-.26.565-.264.771-.36 1.098-.088.414-.373.906-.244 1.505.122.504.234.874.581.842.465-.049.66-.413.564-.63-.142-.43.146-.614.151-1.038-.025-.773.43-1.122.662-1.248.13-.078.164-.333.318-.5.141-.163.29-.117.444-.315.327-.394.482-.54.378-.883" fill="#BA7D00"/><path d="M586.984 183.85c.207.332.992.033 2.266.023.635-.002 1.098.127 1.52.256.21.08.414.154.63.221.21.084.432.18.689.263.508.186.834.356 1.118.47.268.15.486.272.757.441.707.418 1.332 1.203 2.262 1.887.78.625 1.37 1.168 1.643.934.357-.3-.093-1.092-.53-1.438-.407-.336-.697-.6-.956-.91a4.353 4.353 0 00-1.015-.922c-1.628-1.026-2.71-1.665-3.403-2.036-.388-.19-1.065-.243-1.711-.298-.608-.037-.884-.18-1.611-.038-1.42.355-1.841.873-1.66 1.147M536.557 142.45c.323.213.736-.096 1.199-.668.467-.57.832-.72 1.193-1.214.365-.492.469-.665.708-.92.28-.351.804-.555 1.178-1.045.327-.426.646-.69.464-1.005-.227-.4-.781-.313-.973-.052-.373.47-.758.445-1.162.916-.623.845-1.18 1.22-1.527 1.448-.193.124-.305.472-.496.74-.177.257-.361.287-.52.626-.303.673-.356.98-.064 1.174" fill="#BA7D00"/><path d="M533.121 166.947s9.684-4.498 10.908-4.698c1.224-.2 2.894-.802 3.784 0 .891.802 1.002 2.146 1.002 2.146s3.117-.882 4.452 0c1.336.882 3.228 8.784 4.675 10.788 1.447 2.003 20.592 8.348 29.83 10.575 0 0 8.348 7.679.667 17.808 0 0-36.472-15.9-39.383-20.861-4.63-3.17-15.156-12.864-15.156-12.864l-.779-2.894z" fill="#E9C09A"/><path d="M550.245 172.626c.189-.03.288-.347.222-.873-.09-.51-.247-1.305-1.071-2.025-.44-.362-.93-.472-1.266-.554-.36-.085-.666-.131-.965-.18a17.491 17.491 0 00-1.816-.18c-.521-.026-.883-.075-1.1-.133-.145-.041-.117-.031-.142-.035-.02-.004-.032-.018-.041-.035-.016-.012-.003-.102.02-.203.076-.302.43-.652.88-.947.45-.304.998-.588 1.588-.93 1.023-.594 1.936-.913 1.829-1.262-.13-.45-1.213-.332-1.804.003-.563.306-1.001.489-1.454.688-.448.207-.924.43-1.445.976-.31.346-.562.75-.672 1.138-.121.368-.052.763-.041.863.107.308.29.566.559.71.254.15.407.179.588.245.332.092.608.147.845.193l1.082.209c.467.099 1.209-.01 1.852.077.307.04.475.119.593.208.123.088.25.193.464.418.422.467.633.966.81 1.244.175.29.31.413.485.385" fill="#DA9656"/><path fill="#C4CDD5" d="M490.158 151.92l.556 2.782 26.825 31.055 31.722-.668 1-1.559-39.178-26.824z"/><path fill="#F4F6F8" d="M490.158 151.92h31.499l28.605 31.61-32.39.891z"/><g><path d="M499.805 165.227s-2.858 4.057-1.634 8.175c1.225 4.118 11.799 11.242 13.246 11.02 1.447-.223 5.565-2.45 6.567-4.675-.112-.557-1.336-.334-1.336-.334s2.671-1.114 2.782-2.56c.112-1.447-2.226-2.026-2.226-2.026s.668-2.983-1.001-3.539c-1.67-.557-12.578-2.116-12.578-2.116l-3.82-3.945z" fill="#E9C09A"/><path d="M508.077 175.277c0 .387.593.56 1.475.58.881.022 1.3.205 2.041.152.74-.054.978-.103 1.403-.113.537-.047 1.186.156 1.937.004.647-.133 1.158-.207 1.158-.562 0-.467-.548-.674-.888-.59-.65.158-.967-.121-1.653-.045-1.174.183-1.935-.002-2.384-.115-.248-.065-.634.07-1.012.089-.357.02-.512-.107-.93-.03-.825.157-1.147.278-1.147.63M510.86 178.95c0 .387.387.56.962.58.576.022.85.205 1.333.152.483-.054.64-.103.916-.113.351-.047.774.156 1.264.004.423-.133.756-.207.756-.562 0-.467-.357-.674-.579-.59-.425.158-.63-.121-1.08-.045a2.413 2.413 0 01-1.556-.115c-.162-.065-.413.07-.66.089-.233.02-.335-.107-.607-.03-.539.157-.749.278-.749.63M501.956 170.825c0 .387.107.56.266.58.159.022.235.205.369.152.133-.054.176-.103.253-.113.097-.047.214.156.35.004.116-.133.209-.207.209-.562 0-.467-.1-.674-.16-.59-.118.158-.175-.121-.3-.045-.211.183-.348-.002-.43-.115-.044-.065-.114.07-.182.089-.064.02-.093-.107-.168-.03-.15.157-.207.278-.207.63" fill="#DA9656"/></g></g></g></g></svg>